<svg width="37" height="29" viewBox="0 0 37 29" fill="none" xmlns="http://www.w3.org/2000/svg">
<g clip-path="url(#clip0_1041_8033)">
<path d="M33.7982 26.6852C31.5837 28.0848 28.9965 28.8886 26.23 28.8886C23.7513 28.8886 21.4157 28.2439 19.3633 27.1013C20.6655 26.1178 23.2008 23.9034 24.7783 20.1617H28.5829C28.4775 20.4691 28.3627 20.778 28.2369 21.0901C27.5197 22.8742 26.62 24.3668 25.7031 25.5851C25.6638 25.6371 25.6245 25.6907 25.5852 25.7411C25.7472 25.749 25.9123 25.7521 26.0759 25.7521C28.6521 25.7521 31.0364 24.879 32.9772 23.3959C32.5101 22.2154 31.8794 21.1247 31.1119 20.1586C30.1981 19.0065 29.0909 18.034 27.8437 17.2933C27.2208 16.9213 26.5619 16.6108 25.8761 16.3634C25.9312 16.0308 25.9752 15.7061 26.0082 15.3893C26.0995 14.5446 26.1183 13.7581 26.0963 13.052C31.2566 14.5304 35.3002 18.8883 36.5898 24.3999C35.7484 25.273 34.8126 26.039 33.7966 26.682L33.7982 26.6852Z" fill="white"/>
<path d="M18.2735 22.6375C20.1624 20.855 21.5087 18.4388 22.012 15.7027C22.0293 15.5987 22.0482 15.4963 22.0639 15.3922H11.5704C11.4776 14.6799 11.4272 13.9501 11.4272 13.2094C11.4272 7.61581 14.1937 2.70629 18.3553 -0.067627C22.001 2.32803 24.5913 6.34864 25.2204 11.0438H22.0403C21.5543 8.21473 20.1718 5.7182 18.2153 3.89309C15.9521 6.02869 14.469 9.07685 14.2803 12.4922C14.2708 12.6451 14.2645 12.798 14.2614 12.9525H25.3651C25.3651 13.0565 25.3683 13.1605 25.3683 13.2645C25.3683 13.9864 25.3211 14.6972 25.233 15.3938C25.2016 15.6397 25.1654 15.8824 25.1229 16.1251C25.0553 16.5223 24.9719 16.9132 24.876 17.2993C23.904 21.1749 21.5669 24.4626 18.4402 26.5447C16.1141 25.0159 14.2158 22.8251 12.9874 20.2167L12.9607 20.1646C12.536 19.2568 12.1916 18.2986 11.9384 17.2993H18.176V20.1646H16.2321C16.8093 21.0819 17.495 21.9141 18.2735 22.6407V22.6375Z" fill="white"/>
<path d="M13.2763 28.6803C12.3972 28.8521 11.4928 28.9419 10.5665 28.9419C6.41277 28.9419 2.66014 27.1294 -0.0292969 24.2105C1.31542 18.7446 5.37789 14.4371 10.5366 13.006C10.4957 13.9391 10.5271 15.0282 10.7064 16.2197C7.35801 17.2962 4.64026 19.9014 3.27667 23.2695C5.25993 24.8646 7.73075 25.8086 10.4123 25.8086C10.6215 25.8086 10.8275 25.8023 11.0336 25.7913C10.1591 24.4737 9.30038 22.9039 8.59263 21.0725C8.4731 20.7667 8.36458 20.4625 8.26078 20.1631H11.8105C11.9599 20.5208 12.1204 20.8644 12.2871 21.1954C13.918 24.4343 16.2284 26.3477 17.3797 27.1846C16.1089 27.8843 14.728 28.3966 13.2732 28.6818L13.2763 28.6803Z" fill="white"/>
</g>
<defs>
<clipPath id="clip0_1041_8033">
<rect width="36.6455" height="29.0001" fill="white"/>
</clipPath>
</defs>
</svg>
