<svg width="42" height="42" viewBox="0 0 42 42" fill="none" xmlns="http://www.w3.org/2000/svg">
<path fill-rule="evenodd" clip-rule="evenodd" d="M21 42C32.5674 42 42 32.5674 42 21C42 9.43261 32.5674 0 21 0C9.43262 0 0 9.43261 0 21C0 32.5674 9.43262 42 21 42Z" fill="#FCD1C8"/>
<path fill-rule="evenodd" clip-rule="evenodd" d="M29.2213 15.0182L29.3933 14.1247C29.3933 14.1247 29.6138 15.25 30.2531 16.2183C30.8925 17.1866 32.2645 18.9962 32.2645 23.0451C32.2645 27.0941 29.4792 28.9671 26.7426 29.0456C24.0021 29.1242 23.6657 23.9312 29.225 15.0182H29.2213Z" fill="#675D82"/>
<path fill-rule="evenodd" clip-rule="evenodd" d="M29.9766 15.7511C30.0589 15.9081 30.1486 16.0651 30.2495 16.2184C30.8888 17.1867 32.2609 18.9962 32.2609 23.0452C32.2609 27.0942 29.4756 28.9635 26.739 29.0457C24.0995 29.1243 23.6882 24.3014 28.6344 15.9829C29.0494 15.9492 29.4943 15.8745 29.9766 15.7511Z" fill="#4C466A"/>
<path fill-rule="evenodd" clip-rule="evenodd" d="M18.783 29.1168L18.1511 29.2289L18.11 29.1616C18.11 29.1616 17.6464 29.2738 16.966 29.4383C15.4518 29.7075 11.3244 30.3617 10.113 31.517C10.113 31.517 11.4552 35.3341 11.287 39.6224C14.1919 41.1403 17.4969 42.0001 21.0037 42.0001C26.1892 42.0001 30.9373 40.1196 34.6012 37.0016C34.8704 33.891 35.7078 31.517 35.7078 31.517C34.4965 30.3617 30.369 29.7075 28.8549 29.4383C28.1782 29.2738 27.7146 29.1616 27.7146 29.1616L27.6735 29.2289L27.0416 29.1168C26.0023 31.5955 20.2186 32.9975 18.7904 29.1168H18.783Z" fill="white"/>
<path fill-rule="evenodd" clip-rule="evenodd" d="M26.1108 41.3721C26.4585 41.2861 26.8062 41.1889 27.1464 41.0842C26.2529 40.3365 25.1051 39.8878 23.8489 39.8878C22.4282 39.8878 21.1421 40.4636 20.2112 41.3945C20.0355 41.5702 19.871 41.7571 19.7214 41.959C20.0766 41.9815 20.4355 41.9927 20.7982 41.9964L20.8057 41.9889C21.5833 41.2113 22.66 40.729 23.8489 40.729C24.6789 40.729 25.4528 40.9645 26.1108 41.3683V41.3721Z" fill="#FCD1C8"/>
<path d="M22.9067 33.876C20.4953 33.876 17.2165 32.874 15.9117 30.0513L15.7472 29.6962C15.7098 29.6139 15.7472 29.513 15.8294 29.4756C15.9117 29.4382 16.0126 29.4756 16.05 29.5578L16.2145 29.913C17.3735 32.4216 20.4093 33.5432 22.9067 33.5432C25.4041 33.5432 28.4399 32.4216 29.5989 29.913L29.7634 29.5578C29.8008 29.4756 29.9017 29.4382 29.984 29.4756C30.0662 29.513 30.1036 29.6139 30.0662 29.6962L29.9017 30.0513C28.6007 32.874 25.3219 33.876 22.9067 33.876Z" fill="#FCD1C8"/>
<path fill-rule="evenodd" clip-rule="evenodd" d="M10.1094 31.5169C10.1094 31.5169 9.12984 32.1338 8.64382 32.9226C8.50175 33.1507 7.83627 34.6349 6.96143 36.6202C8.34099 37.8614 9.8813 38.9194 11.5562 39.7606C11.6048 37.4987 11.3394 34.5153 10.1094 31.5169Z" fill="white"/>
<path fill-rule="evenodd" clip-rule="evenodd" d="M35.7043 31.5169C35.7043 31.5169 36.7474 32.7133 37.5661 33.9059C36.6464 35.0836 35.6033 36.164 34.4556 37.1211C34.5341 35.3378 34.8631 33.3563 35.7043 31.5169Z" fill="white"/>
<path fill-rule="evenodd" clip-rule="evenodd" d="M27.707 29.1616L28.2791 29.2999C27.5313 30.9187 25.4115 32.0852 22.9066 32.0852C20.4017 32.0852 18.2819 30.9187 17.5342 29.2999L18.0464 29.1765C19.3026 28.784 19.6689 28.2905 19.6689 27.0642V24.6789C20.5849 24.2191 21.7028 23.9462 22.9066 23.9462C24.1105 23.9462 25.2246 24.2153 26.1443 24.6789V27.0455C26.1443 28.04 26.4995 28.8924 27.707 29.1616Z" fill="#FCD1C8"/>
<path fill-rule="evenodd" clip-rule="evenodd" d="M19.3736 28.3727C19.5905 28.0549 19.669 27.64 19.669 27.0642V24.6789C20.5849 24.2191 21.7028 23.9462 22.9066 23.9462C24.1105 23.9462 25.2246 24.2153 26.1443 24.6789V27.0455C26.1443 27.0754 26.1443 27.1016 26.1443 27.1278C25.5349 27.7633 24.8993 28.3914 24.5367 28.6494C24.032 29.0046 23.374 29.2251 22.7048 29.3074C22.0355 29.3934 21.3439 29.341 20.7681 29.1242C20.4541 29.0046 19.9307 28.7129 19.3699 28.3765L19.3736 28.3727Z" fill="#EE8880"/>
<path fill-rule="evenodd" clip-rule="evenodd" d="M12.345 22.8507C11.1262 24.4097 9.26433 28.526 11.6421 29.7336C12.4983 30.171 12.8721 28.7765 12.8721 28.7765C15.1639 32.7656 20.1326 31.7973 18.5773 30.4664C18.5773 30.4664 20.2933 30.3729 20.4653 29.2363C20.6373 28.0998 19.9195 26.881 19.3101 26.4473C18.7007 26.0099 15.3209 19.6243 15.3209 19.6243C15.3209 19.6243 12.3711 22.8208 12.345 22.8507Z" fill="#4C466A"/>
<path fill-rule="evenodd" clip-rule="evenodd" d="M15.2688 19.3401C15.2688 19.3401 14.5548 18.7419 14.1323 18.8354C13.7098 18.9251 13.2874 19.9083 13.4294 20.5963C13.5752 21.2842 14.6781 23.5947 15.9792 22.5104C17.2802 21.4225 15.2726 19.3438 15.2726 19.3438L15.2688 19.3401Z" fill="#F8A8A0"/>
<path fill-rule="evenodd" clip-rule="evenodd" d="M28.3538 17.4222C28.3538 17.4222 28.9109 16.6745 29.3446 16.667C29.7783 16.6595 30.4138 17.5194 30.4325 18.2185C30.4512 18.9214 29.9091 21.4263 28.395 20.6673C26.8808 19.9084 28.3538 17.4222 28.3538 17.4222Z" fill="#FCD1C8"/>
<path fill-rule="evenodd" clip-rule="evenodd" d="M27.9054 18.2634C27.8605 18.3157 27.8568 18.398 27.8941 18.4503C27.9278 18.4952 27.9839 18.4952 28.0287 18.4578C28.0287 18.4578 28.6531 20.5552 28.9297 20.185C29.2101 19.8149 29.5055 19.456 29.5803 18.8989C29.6513 18.3419 29.1129 17.897 29.2737 17.7362C29.4233 17.5829 29.6251 17.7736 29.6438 17.7923C29.8046 17.9605 29.8943 18.1699 29.8943 18.1699C29.9205 18.2297 29.9841 18.2447 30.0364 18.2036C30.0887 18.1624 30.1074 18.0802 30.0813 18.0204C30.0813 18.0204 29.7448 17.2352 29.1503 17.3287C28.582 17.4184 27.9091 18.2596 27.9054 18.2634Z" fill="#F8A8A0"/>
<path fill-rule="evenodd" clip-rule="evenodd" d="M20.5216 8.78222C11.7096 10.016 13.8668 16.7269 15.3398 22.1703C15.9604 24.4621 17.4223 25.6772 17.4223 25.6772C17.4223 25.6772 20.1851 27.5502 21.1011 27.9017C21.6469 28.111 22.3049 28.1559 22.9368 28.0774C23.5686 27.9989 24.1967 27.7933 24.6715 27.4568C25.4753 26.8922 27.6886 24.3948 27.6886 24.3948C27.6886 24.3948 28.8064 22.8545 28.8401 20.4842C28.9261 14.8463 29.3635 7.81017 20.5179 8.78596L20.5216 8.78222Z" fill="#FCD1C8"/>
<path fill-rule="evenodd" clip-rule="evenodd" d="M15.007 11.4927C13.0517 14.2331 14.334 18.4466 15.3248 22.1067C18.1661 20.6 18.4316 16.9586 18.6783 15.1603C18.9475 13.1788 19.8186 12.5283 19.8186 12.5283L21.1234 8.72981C28.511 8.19519 28.926 13.6574 28.8699 18.7681C24.5742 19.3251 24.1592 14.3415 24.1592 14.3415L25.5425 13.1676C25.5425 11.0739 16.9361 10.7038 16.9361 10.7038L15.0032 11.4927H15.007Z" fill="#F8A8A0"/>
<path fill-rule="evenodd" clip-rule="evenodd" d="M21.6393 12.0573C21.6393 12.0573 23.1385 11.9152 23.8376 13.5527C24.5405 15.1903 25.2396 17.9157 28.1857 17.7438C28.1857 17.7438 28.3763 18.5064 28.8698 18.5999C28.8698 18.5999 29.1129 16.5212 29.6811 16.7979C29.6811 16.7979 29.3933 12.7788 29.1129 11.3768C28.8325 9.97485 28.2231 8.35975 26.8996 7.48865C25.5724 6.61754 24.1891 6.01562 23.4077 5.80999C22.6263 5.60811 21.8337 5.55203 20.57 6.82317C20.57 6.82317 18.9176 6.07544 16.9398 7.05496C14.9621 8.03823 12.9357 10.8908 12.4347 12.7601C11.9375 14.6295 13.5937 20.2412 12.345 22.8433C12.345 22.8433 17.0109 21.0076 17.7324 17.6952C18.454 14.3827 18.7045 12.076 21.6393 12.0498V12.0573Z" fill="#675D82"/>
<path fill-rule="evenodd" clip-rule="evenodd" d="M23.8339 13.5414V13.5527C24.5405 15.1902 25.2397 17.9157 28.1857 17.7437C28.1857 17.7437 28.3764 18.5064 28.8699 18.5998C28.8699 18.5998 29.1129 16.5211 29.6812 16.7978C29.6812 16.7978 29.655 16.409 29.6064 15.837C25.7107 16.6595 24.1741 14.2144 23.8302 13.5414H23.8339ZM12.8199 20.013C12.8199 21.101 12.704 22.0992 12.3413 22.8507C12.3413 22.8507 17.0071 21.015 17.7287 17.7026C18.3605 14.8014 18.6297 12.6741 20.6561 12.1731C17.4782 12.4722 16.6781 20.7234 12.8199 20.0168V20.013Z" fill="#4C466A"/>
<path fill-rule="evenodd" clip-rule="evenodd" d="M34.6647 36.3509C34.6572 36.4369 34.5824 36.5042 34.4927 36.4967C34.4067 36.4893 34.3394 36.4107 34.3469 36.3248C34.4179 35.4873 34.5488 34.6162 34.7656 33.7413C34.9563 32.9712 35.2143 32.1973 35.5582 31.4496C35.5956 31.371 35.6891 31.3337 35.7676 31.371C35.8461 31.4084 35.8835 31.5019 35.8461 31.5804C35.5134 32.3094 35.2629 33.0609 35.0722 33.8161C34.8591 34.6685 34.732 35.5247 34.6609 36.3472L34.6647 36.3509ZM11.4028 39.6821C11.5075 39.7344 11.6122 39.7867 11.7169 39.8391C11.7729 37.551 11.5112 34.5115 10.2588 31.457C10.2251 31.3748 10.1317 31.3374 10.0532 31.371C9.9709 31.4047 9.93351 31.4982 9.96716 31.5767C11.1747 34.5227 11.4439 37.4501 11.4065 39.6821H11.4028Z" fill="#FCD1C8"/>
<path fill-rule="evenodd" clip-rule="evenodd" d="M17.5905 16.0913C17.5793 16.0053 17.6391 15.923 17.7288 15.9118C17.8148 15.9006 17.8971 15.9604 17.9083 16.0501C17.9083 16.0651 18.5999 20.8281 13.9117 22.6975C13.8294 22.7311 13.7397 22.69 13.706 22.6077C13.6761 22.5255 13.7135 22.4358 13.7958 22.4021C18.2522 20.6262 17.598 16.1025 17.5942 16.0913H17.5905Z" fill="#4C466A"/>
<path fill-rule="evenodd" clip-rule="evenodd" d="M24.4097 14.7715C24.3911 14.6855 24.4471 14.6032 24.5331 14.5845C24.6191 14.5658 24.7014 14.6219 24.7201 14.7079C24.7201 14.7191 25.4977 18.5176 28.5821 17.8596C28.6681 17.8409 28.7541 17.897 28.769 17.983C28.7877 18.069 28.7316 18.1549 28.6456 18.1736C25.251 18.8989 24.4097 14.7902 24.406 14.7752L24.4097 14.7715Z" fill="#4C466A"/>
<path fill-rule="evenodd" clip-rule="evenodd" d="M24.3349 17.6802C24.3349 17.6802 24.1629 17.7475 23.9872 17.6914C23.8152 17.6354 23.647 17.3774 23.647 17.3138C23.647 17.2503 23.7479 17.34 24.047 17.1606C24.3386 16.9848 25.4415 16.5175 26.3201 17.2316C26.4734 17.355 26.3799 17.4746 26.2042 17.4372C26.0285 17.3998 25.2583 17.112 24.3349 17.6765V17.6802Z" fill="#4C466A"/>
<path fill-rule="evenodd" clip-rule="evenodd" d="M19.4075 19.2094C19.4075 19.2094 19.587 19.2543 19.7515 19.1757C19.916 19.0972 20.0468 18.8206 20.0393 18.757C20.0319 18.6935 19.9421 18.7944 19.6244 18.6561C19.314 18.5215 18.1588 18.2 17.3812 19.0262C17.2466 19.1683 17.3513 19.2767 17.5232 19.2169C17.6952 19.1571 18.4205 18.772 19.4075 19.2057V19.2094Z" fill="#4C466A"/>
<path fill-rule="evenodd" clip-rule="evenodd" d="M21.4001 19.8449C21.4151 19.7701 21.4899 19.7178 21.5646 19.7327C21.6431 19.7477 21.6918 19.8224 21.6805 19.8972C21.6319 20.1552 21.3553 21.6133 21.3964 21.7404C21.43 21.8226 21.5983 21.9198 21.6768 21.9572C21.8039 22.0208 21.9534 22.0582 22.0955 22.0544C22.174 22.0544 22.2413 22.1142 22.2451 22.1928C22.2451 22.2713 22.1852 22.3386 22.1067 22.3423C21.9161 22.3498 21.7217 22.3012 21.5497 22.2189C21.4076 22.1479 21.1908 22.0058 21.131 21.8488C21.0637 21.6768 21.3366 20.1328 21.4001 19.8486V19.8449Z" fill="#F68B85"/>
<path fill-rule="evenodd" clip-rule="evenodd" d="M22.0618 24.0546C21.9907 24.0546 21.9309 23.9985 21.9309 23.9275C21.9309 23.8564 21.987 23.7966 22.058 23.7966C22.058 23.7966 22.4356 23.7891 22.8955 23.6396C22.9628 23.6171 23.0376 23.6545 23.06 23.7218C23.0824 23.7891 23.045 23.8639 22.9777 23.8863C22.4842 24.0471 22.0618 24.0546 22.0618 24.0546Z" fill="#F68B85"/>
<path fill-rule="evenodd" clip-rule="evenodd" d="M20.944 23.4937C20.8693 23.4825 20.8207 23.4189 20.8281 23.3441C20.8356 23.2694 20.9029 23.2208 20.9777 23.2282C20.9852 23.2282 23.0115 23.5086 23.6546 22.4057C23.692 22.3422 23.7742 22.3197 23.8378 22.3571C23.9013 22.3945 23.9237 22.4768 23.8864 22.5403C23.1536 23.7965 20.9515 23.4937 20.9478 23.4937H20.944Z" fill="#F68B85"/>
<path fill-rule="evenodd" clip-rule="evenodd" d="M23.4824 22.5292C23.4114 22.5367 23.3441 22.4843 23.3366 22.4096C23.3292 22.3385 23.3815 22.2712 23.4563 22.2637C23.4563 22.2637 23.9946 22.2002 24.0358 22.7124C24.0395 22.7834 23.9872 22.8507 23.9161 22.8544C23.8451 22.8582 23.7778 22.8058 23.7741 22.7311C23.7554 22.4955 23.4862 22.5292 23.4862 22.5292H23.4824Z" fill="#F68B85"/>
<path fill-rule="evenodd" clip-rule="evenodd" d="M17.5082 20.7609C17.5082 20.7609 17.3063 20.7833 17.1306 20.6487C16.9549 20.5141 17.1119 20.0618 17.3288 19.7589C17.5456 19.4561 19.2766 19.4748 20.0318 20.2562L19.8411 20.4057C19.8411 20.4057 18.1625 20.3085 17.512 20.7609H17.5082Z" fill="#F8A8A0"/>
<path fill-rule="evenodd" clip-rule="evenodd" d="M24.7462 19.542L24.3761 19.7813C24.3761 19.7813 24.1368 18.9065 24.5593 18.3457C24.9817 17.7886 25.8454 17.6914 26.5221 18.0241C27.1988 18.3569 26.6978 19.3214 26.0847 19.6131C25.4753 19.9047 24.7462 19.5383 24.7462 19.5383V19.542Z" fill="#F8A8A0"/>
<path fill-rule="evenodd" clip-rule="evenodd" d="M25.1089 18.6261C25.2846 18.6074 25.4566 18.6411 25.6024 18.7196C25.6959 18.6485 25.7931 18.5326 25.7968 18.3607C25.7968 18.2784 25.8679 18.2111 25.9501 18.2111C26.0324 18.2111 26.0996 18.2822 26.0996 18.3644C26.0996 18.57 26.0174 18.7233 25.9165 18.8355C25.9838 18.8243 26.0473 18.7869 26.0884 18.7084C26.1258 18.6336 26.2193 18.6074 26.2903 18.6448C26.3651 18.6822 26.3913 18.7757 26.3539 18.8467C26.2604 19.0224 26.1258 19.1009 25.9912 19.1271C26.0249 19.2056 26.0511 19.2879 26.0585 19.3776L26.1557 20.2263C26.2081 20.6936 25.8679 21.1198 25.4005 21.1759C24.9332 21.2282 24.5033 20.888 24.4509 20.4207L24.3537 19.572C24.3014 19.1047 24.6416 18.6785 25.1089 18.6224V18.6261Z" fill="#4C466A"/>
<path fill-rule="evenodd" clip-rule="evenodd" d="M19.4784 20.7533C19.4784 20.7533 19.6616 20.7907 19.8224 20.7047C19.9831 20.6187 20.1028 20.3383 20.0915 20.2748C20.0803 20.2112 19.9943 20.3196 19.6728 20.1963C19.4074 20.0953 18.5475 19.8859 17.8371 20.3271C17.7549 20.2897 17.6652 20.2187 17.6315 20.0953C17.6128 20.028 17.5455 19.9906 17.4782 20.0093C17.4147 20.028 17.3735 20.0953 17.396 20.1626C17.4408 20.3122 17.5268 20.4168 17.624 20.4841L17.6091 20.4991C17.5642 20.4991 17.5193 20.4767 17.482 20.4355C17.4371 20.3869 17.3586 20.3832 17.3062 20.428C17.2576 20.4729 17.2539 20.5514 17.2988 20.6038C17.3362 20.6449 17.3773 20.6748 17.4184 20.6972C17.3399 20.8243 17.4408 20.9029 17.5979 20.843C17.7661 20.7757 18.4764 20.3608 19.4821 20.7533H19.4784Z" fill="#4C466A"/>
</svg>
