<svg width="42" height="42" viewBox="0 0 42 42" fill="none" xmlns="http://www.w3.org/2000/svg">
<path fill-rule="evenodd" clip-rule="evenodd" d="M21 42C32.5674 42 42 32.5674 42 21C42 9.43261 32.5674 0 21 0C9.43262 0 0 9.43261 0 21C0 32.5674 9.43262 42 21 42Z" fill="#D0EBFA"/>
<path fill-rule="evenodd" clip-rule="evenodd" d="M35.8351 31.2885C35.8351 31.2885 37.1175 31.8605 38.1718 33.0905C36.9605 34.8103 35.4987 36.3357 33.835 37.6218C34.2873 34.8103 34.9266 32.4774 35.8351 31.2885Z" fill="#735974"/>
<path d="M18.8917 20.4391H23.9089C24.6492 20.4391 25.2474 21.041 25.2474 21.7775V33.9431C25.2474 34.6833 24.6454 35.2815 23.9089 35.2815H18.8917C18.1514 35.2815 17.5532 34.6796 17.5532 33.9431V21.7775C17.5532 21.0373 18.1551 20.4391 18.8917 20.4391Z" fill="#FCD1C8"/>
<path fill-rule="evenodd" clip-rule="evenodd" d="M25.2474 27.1089V21.7813C25.2474 21.0448 24.6454 20.4429 23.9089 20.4429H18.8917C18.1551 20.4429 17.5532 21.0448 17.5532 21.7813V26.6976C18.458 27.3033 19.8974 28.238 20.518 28.481C21.075 28.7015 21.748 28.7539 22.3985 28.6791C23.049 28.6043 23.6921 28.3987 24.1856 28.0585C24.4398 27.8828 24.8286 27.5239 25.2474 27.1126V27.1089Z" fill="#F68B85"/>
<path fill-rule="evenodd" clip-rule="evenodd" d="M8.06427 37.5473C8.00819 33.7638 7.29785 31.1767 7.29785 31.1767C7.29785 31.1767 15.149 28.5708 15.9715 28.3577C16.794 28.1446 17.4558 27.4044 17.4558 27.4044C17.4857 27.4193 17.5156 27.4343 17.5492 27.4492V28.0437C17.5455 28.8736 19.2204 30.6682 21.3963 30.6682C23.5722 30.6682 25.2508 28.8736 25.2471 28.0437V27.4492C25.277 27.4343 25.3069 27.4193 25.3368 27.4044C25.3368 27.4044 25.9986 28.1484 26.8211 28.3577C27.6436 28.5708 35.8312 31.2851 35.8312 31.2851C35.8312 31.2851 34.6087 33.7115 34.1488 37.3679C30.5485 40.2653 25.9761 42 20.9963 42C16.0164 42 11.6272 40.3363 8.06427 37.5473Z" fill="white"/>
<path fill-rule="evenodd" clip-rule="evenodd" d="M17.0109 39.5698C16.4988 40.082 16.0763 40.6801 15.7697 41.3419C15.3734 41.2409 14.9809 41.125 14.592 41.0017C14.9659 40.1418 15.5005 39.3641 16.1511 38.7099C17.4932 37.3677 19.3476 36.5377 21.3964 36.5377C23.4452 36.5377 25.2995 37.3677 26.6417 38.7099C27.2362 39.3043 27.7297 39.9997 28.0961 40.7661C27.711 40.9045 27.3221 41.0316 26.9296 41.1475C26.6305 40.5605 26.2454 40.0296 25.7818 39.5698C24.6602 38.4482 23.1087 37.7528 21.3926 37.7528C19.6766 37.7528 18.1251 38.4482 17.0035 39.5698H17.0109Z" fill="#E4DAE2"/>
<path fill-rule="evenodd" clip-rule="evenodd" d="M8.06427 37.5473C8.00819 33.7638 7.29785 31.1767 7.29785 31.1767C7.29785 31.1767 15.149 28.5708 15.9715 28.3577C16.794 28.1446 17.4558 27.4044 17.4558 27.4044C17.4857 27.4193 17.5156 27.4343 17.5492 27.4492V28.0437C17.5492 28.3465 17.7698 28.7839 18.1661 29.2101L12.6553 31.543C12.6553 31.543 8.92416 32.9862 9.49244 38.2651C9.49244 38.2651 9.15969 38.1455 8.61011 37.9586C8.42692 37.824 8.24373 37.6894 8.06427 37.5473ZM34.0965 37.4127L34.2236 37.3118C34.7096 35.7266 36.1378 34.8854 36.4892 33.8423C36.8631 32.7319 35.835 31.2851 35.835 31.2851C35.835 31.2851 27.6473 28.5671 26.8248 28.3577C26.0023 28.1446 25.3406 27.4044 25.3406 27.4044C25.3107 27.4193 25.2807 27.4343 25.2471 27.4492V28.0437C25.2471 28.3465 25.0228 28.7839 24.6302 29.2101L30.141 31.543C30.141 31.543 34.0703 32.9039 34.0965 37.4127Z" fill="#735974"/>
<path fill-rule="evenodd" clip-rule="evenodd" d="M15.9493 28.3652L15.9717 28.3577C16.7942 28.1446 17.456 27.4044 17.456 27.4044C17.4859 27.4193 17.5158 27.4343 17.5494 27.4492V28.0437C17.5457 28.8736 19.2206 30.6682 21.3965 30.6682C23.5724 30.6682 25.251 28.8736 25.2473 28.0437V27.4492C25.2772 27.4343 25.3071 27.4193 25.337 27.4044C25.337 27.4044 25.9988 28.1484 26.8213 28.3577L26.8437 28.3652C26.6979 29.4045 25.8866 30.3542 25.0903 30.9748C24.036 31.7973 22.7349 32.2833 21.3928 32.2833C20.0506 32.2833 18.7495 31.7935 17.699 30.9748C16.9027 30.3542 16.0914 29.4008 15.9456 28.3615L15.9493 28.3652Z" fill="#735974"/>
<path fill-rule="evenodd" clip-rule="evenodd" d="M13.822 40.7439C11.2199 34.2686 12.5023 29.4794 12.5621 29.442C12.6817 29.3709 12.2293 29.1915 11.934 29.2924C11.6386 29.3896 9.28702 30.2121 9.08887 30.2944C8.9468 30.3542 8.70379 34.1265 11.1115 39.5363C11.9788 39.9999 12.8836 40.4037 13.8183 40.7439H13.822Z" fill="#9E6D82"/>
<path fill-rule="evenodd" clip-rule="evenodd" d="M7.30169 31.1766C7.30169 31.1766 5.638 31.7524 4.55005 34.0554C5.9483 35.8163 7.62695 37.3491 9.51123 38.5829C9.37664 35.8275 8.8121 32.9936 7.30169 31.1766Z" fill="#735974"/>
<path fill-rule="evenodd" clip-rule="evenodd" d="M23.1649 41.8915L21.8451 40.5718C21.5984 40.325 21.1983 40.325 20.9516 40.5718L19.572 41.9513C20.0431 41.9813 20.5179 41.9999 20.9964 41.9999C21.7292 41.9999 22.4508 41.9626 23.1611 41.8915H23.1649Z" fill="#E4DAE2"/>
<path fill-rule="evenodd" clip-rule="evenodd" d="M30.0366 17.2501C30.0366 17.2501 30.9227 16.4388 31.476 16.536C32.0256 16.6295 32.6238 17.8745 32.4779 18.768C32.3321 19.6616 31.0348 22.7011 29.3001 21.3739C27.5654 20.0466 30.0366 17.2539 30.0366 17.2539V17.2501Z" fill="#FCD1C8"/>
<path fill-rule="evenodd" clip-rule="evenodd" d="M29.2624 18.2031C29.1952 18.2592 29.169 18.3638 29.2026 18.4349C29.2325 18.4984 29.3073 18.5171 29.3709 18.476C29.3709 18.476 29.6513 21.2837 30.0924 20.8837C30.5373 20.4836 31.0009 20.1023 31.229 19.4144C31.457 18.7265 30.8813 18.0348 31.1206 17.8666C31.3486 17.7096 31.558 18.0012 31.5767 18.0274C31.7412 18.2778 31.801 18.5657 31.801 18.5657C31.8197 18.648 31.8945 18.6816 31.9692 18.6442C32.044 18.6068 32.0889 18.5059 32.0702 18.4237C32.0702 18.4237 31.8346 17.3469 31.0607 17.3207C30.3205 17.2946 29.2624 18.1993 29.2587 18.1993L29.2624 18.2031Z" fill="#F8A8A0"/>
<path fill-rule="evenodd" clip-rule="evenodd" d="M15.2241 16.1247C15.2241 16.1247 14.4689 15.1901 13.9118 15.2013C13.351 15.2125 12.5734 16.349 12.5846 17.2575C12.5958 18.1623 13.4183 21.3663 15.3325 20.312C17.2467 19.2614 15.2241 16.1284 15.2241 16.1284V16.1247Z" fill="#FCD1C8"/>
<path fill-rule="evenodd" clip-rule="evenodd" d="M15.8445 17.1863C15.9044 17.2536 15.9118 17.3583 15.867 17.4256C15.8258 17.4854 15.7511 17.4892 15.695 17.4406C15.695 17.4406 14.9959 20.1735 14.6183 19.7099C14.2407 19.2463 13.8406 18.8014 13.7172 18.0873C13.5976 17.3733 14.2668 16.7751 14.0575 16.5732C13.8556 16.3825 13.6051 16.6405 13.5827 16.6629C13.3845 16.8872 13.2798 17.1602 13.2798 17.1602C13.2499 17.2387 13.1677 17.2611 13.1004 17.2125C13.0331 17.1639 13.0032 17.0592 13.0331 16.9807C13.0331 16.9807 13.4256 15.9488 14.1958 16.0423C14.9286 16.132 15.8408 17.1826 15.8445 17.1826V17.1863Z" fill="#F8A8A0"/>
<path fill-rule="evenodd" clip-rule="evenodd" d="M23.4341 6.04524C33.3565 6.94252 31.3115 14.5656 29.9618 20.7344C29.3935 23.329 27.827 24.7721 27.827 24.7721C27.827 24.7721 24.8399 27.0191 23.8342 27.4602C23.236 27.7219 22.5032 27.8117 21.7891 27.7556C21.075 27.7032 20.3647 27.5051 19.8114 27.1537C18.8842 26.5667 16.2709 23.8936 16.2709 23.8936C16.2709 23.8936 14.9362 22.2336 14.7679 19.5829C14.3642 13.2833 13.4893 5.43958 23.4341 6.04524Z" fill="#FCD1C8"/>
<path fill-rule="evenodd" clip-rule="evenodd" d="M24.3426 6.1496C30.702 7.06183 31.5059 11.0771 30.9712 15.4738C30.8778 15.5 30.7806 15.5224 30.6759 15.5411C27.1615 16.1281 26.7652 13.5671 25.4343 10.7706C24.1033 7.97406 21.5012 8.35541 21.5012 8.35541L21.7368 12.4156C19.688 14.9354 16.0652 13.7652 16.0652 13.7652L15.6876 14.0269C15.6876 14.0269 15.4184 11.1557 15.7624 9.06201C16.5026 7.80582 17.6654 6.84125 19.4562 6.35896C21.004 6.19072 22.8509 6.15707 24.3389 6.1496H24.3426Z" fill="#F8A8A0"/>
<path fill-rule="evenodd" clip-rule="evenodd" d="M16.712 11.9373C16.712 11.9373 16.2858 16.1956 14.7791 16.6779C14.7791 16.6779 14.8464 15.646 14.3379 15.332C14.3379 15.332 13.8183 11.4849 14.551 10.2437C15.2838 9.00246 16.5961 10.6587 16.7082 11.9336L16.712 11.9373Z" fill="#735974"/>
<path fill-rule="evenodd" clip-rule="evenodd" d="M29.1841 12.8831C29.1841 12.8831 28.9635 17.1601 30.3767 17.863C30.3767 17.863 30.4665 16.8311 31.0123 16.5993C31.0123 16.5993 32.104 12.8756 31.5694 11.5372C31.031 10.1988 29.4869 11.6381 29.1841 12.8831Z" fill="#735974"/>
<path fill-rule="evenodd" clip-rule="evenodd" d="M23.3107 8.19518C23.3107 8.19518 22.9481 12.4797 20.3609 13.3994C17.7775 14.3228 16.4241 12.7003 16.4241 12.7003C16.4241 12.7003 15.9643 13.7807 14.2108 13.4704C12.4574 13.1564 11.3769 9.8028 14.1062 6.41933C16.8354 3.03585 22.5966 -1.35706 26.2231 4.50514C26.2231 4.50514 28.4028 3.67143 29.9431 4.90892C31.4871 6.14267 33.8836 9.79532 32.8704 12.633C31.8573 15.4706 28.6944 15.8893 26.8512 13.3134C25.0118 10.7412 24.8697 8.15406 23.307 8.19518H23.3107Z" fill="#9E6D82"/>
<path fill-rule="evenodd" clip-rule="evenodd" d="M26.6979 17.2424C26.2007 17.2051 25.7633 17.5789 25.7259 18.0762L25.6586 18.9435C25.6212 19.4408 25.9951 19.8782 26.4923 19.9156C26.9895 19.953 27.427 19.5791 27.4644 19.0819L27.5317 18.2145C27.569 17.7173 27.1952 17.2798 26.6979 17.2424Z" fill="#735974"/>
<path fill-rule="evenodd" clip-rule="evenodd" d="M18.8766 16.5473C18.3794 16.5099 17.942 16.8837 17.9046 17.381L17.8373 18.2483C17.7999 18.7456 18.1738 19.183 18.671 19.2204C19.1682 19.2578 19.6057 18.8839 19.6431 18.3867L19.7103 17.5193C19.7477 17.0221 19.3739 16.5846 18.8766 16.5473Z" fill="#735974"/>
<path fill-rule="evenodd" clip-rule="evenodd" d="M20.2636 21.4634C20.1889 21.426 20.0991 21.4559 20.0617 21.5307C20.0244 21.6055 20.0543 21.6952 20.1291 21.7326C20.1365 21.7326 22.3722 22.8654 24.3537 22.0467C24.4285 22.0167 24.4659 21.927 24.436 21.8522C24.4061 21.7775 24.3163 21.7401 24.2416 21.77C22.3872 22.5364 20.2711 21.4672 20.2636 21.4634Z" fill="#F68B85"/>
<path fill-rule="evenodd" clip-rule="evenodd" d="M22.664 23.0487C22.7462 23.0412 22.806 22.9665 22.7986 22.8842C22.7911 22.802 22.7163 22.7421 22.6341 22.7496C22.6341 22.7496 21.991 22.8132 21.7405 22.6898C21.6657 22.6524 21.576 22.6823 21.5386 22.7571C21.5012 22.8319 21.5349 22.9216 21.6059 22.959C21.9312 23.1197 22.6602 23.0487 22.6602 23.0487H22.664Z" fill="#F68B85"/>
<path fill-rule="evenodd" clip-rule="evenodd" d="M23.0824 18.1249C23.0637 18.0464 22.9815 17.994 22.9029 18.0165C22.8244 18.0351 22.7721 18.1174 22.7945 18.1959C22.7945 18.1996 23.2918 20.1512 23.2469 20.2895C23.2245 20.3606 23.1048 20.4727 22.9366 20.5662C22.7983 20.6447 22.6263 20.7045 22.4543 20.7045C22.372 20.7045 22.3048 20.7756 22.3085 20.8578C22.3085 20.9401 22.3795 21.0074 22.4618 21.0036C22.6898 20.9999 22.9067 20.9251 23.0824 20.8242C23.3142 20.6933 23.4862 20.5139 23.531 20.3793C23.6058 20.155 23.0861 18.1249 23.0861 18.1211L23.0824 18.1249Z" fill="#F68B85"/>
<path fill-rule="evenodd" clip-rule="evenodd" d="M20.0467 15.8892C20.0467 15.8892 20.2748 15.9677 20.4991 15.8892C20.7234 15.8069 20.9253 15.463 20.9216 15.3807C20.9178 15.2985 20.7907 15.4218 20.3944 15.205C20.0056 14.9919 18.5438 14.4423 17.4372 15.4256C17.2465 15.5938 17.3699 15.7471 17.6017 15.6873C17.8297 15.6275 18.8167 15.2125 20.0505 15.8929L20.0467 15.8892Z" fill="#735974"/>
<path fill-rule="evenodd" clip-rule="evenodd" d="M25.6361 16.4161C25.6361 16.4161 25.3968 16.4609 25.1912 16.345C24.9818 16.2291 24.8322 15.859 24.8509 15.7767C24.8696 15.6945 24.9743 15.8366 25.4005 15.6833C25.8193 15.5337 27.3446 15.2085 28.2905 16.3488C28.4513 16.5469 28.3055 16.6778 28.0886 16.5843C27.8718 16.4908 26.9595 15.93 25.6361 16.4161Z" fill="#735974"/>
<path fill-rule="evenodd" clip-rule="evenodd" d="M15.2687 40.3733C15.2276 40.6388 15.2014 40.9117 15.1939 41.1884C14.7902 41.0725 14.3901 40.9453 13.9976 40.8033C14.0275 40.3883 14.091 39.9845 14.1882 39.5957C14.5285 39.8911 14.9023 40.149 15.2687 40.3733Z" fill="#381A2F"/>
<path fill-rule="evenodd" clip-rule="evenodd" d="M11.3803 39.6369L10.9915 38.4368C10.9915 38.4368 11.627 37.188 11.6906 36.1337C11.7541 35.0794 12.9169 35.5318 13.1374 36.201C13.358 36.8703 13.1524 37.532 13.1524 37.532L11.3765 39.6369H11.3803Z" fill="#F8A8A0"/>
<path fill-rule="evenodd" clip-rule="evenodd" d="M10.4197 39.1435C10.5019 38.893 10.629 38.6463 10.9917 38.4369C11.5188 38.1341 12.7713 37.2181 13.0779 37.005C13.3844 36.7919 13.7882 36.7844 14.1621 36.7321C14.5359 36.6797 14.936 36.6835 15.1304 36.9302C15.3248 37.1732 15.4893 37.7826 15.4893 37.7826C15.4893 37.7826 16.48 37.9359 16.3828 38.9267C16.3828 38.9267 17.1567 39.5286 16.9885 40.0931C16.9885 40.0931 17.7586 40.6726 17.3287 41.3493C17.2614 41.454 17.1904 41.5512 17.1193 41.6409C14.7191 41.1923 12.461 40.3361 10.4234 39.1435H10.4197Z" fill="#FCD1C8"/>
<path fill-rule="evenodd" clip-rule="evenodd" d="M15.5379 37.9359C15.6201 37.9097 15.6687 37.82 15.6426 37.7377C15.6164 37.6555 15.5267 37.6069 15.4444 37.633L14.4911 37.9246L14.1695 37.6854C14.0985 37.633 13.9976 37.648 13.9452 37.719C13.8929 37.79 13.9078 37.891 13.9789 37.9433L14.1134 38.0443L13.1975 38.3247C13.1152 38.3508 13.0666 38.4406 13.0928 38.5228C13.119 38.6051 13.2087 38.6537 13.2909 38.6275L14.4948 38.2574C14.4948 38.2574 14.5097 38.2536 14.5135 38.2499L15.5341 37.9359H15.5379ZM16.4426 39.0761C16.5249 39.0425 16.5623 38.949 16.5286 38.8705C16.495 38.7883 16.4015 38.7509 16.323 38.7845L14.4013 39.5809C14.3191 39.6145 14.2817 39.708 14.3153 39.7865C14.349 39.8687 14.4425 39.9061 14.521 39.8725L16.4426 39.0761ZM17.0483 40.2426C17.1305 40.2089 17.1679 40.1192 17.1343 40.037C17.1006 39.9547 17.0072 39.9173 16.9286 39.951L15.4332 40.5641C15.3509 40.5978 15.3136 40.6912 15.3472 40.7697C15.3809 40.852 15.4743 40.8894 15.5528 40.8557L17.0483 40.2426Z" fill="#F8A8A0"/>
</svg>
