<svg width="67" height="67" viewBox="0 0 67 67" fill="none" xmlns="http://www.w3.org/2000/svg">
<g filter="url(#filter0_d_546_151033)">
<rect x="6" y="3" width="53.103" height="53.103" rx="26.5515" fill="white" shape-rendering="crispEdges"/>
<g clip-path="url(#clip0_546_151033)">
<path d="M46.8063 40.7758C44.7665 42.065 42.3833 42.8055 39.835 42.8055C37.5518 42.8055 35.4004 42.2117 33.5098 41.1591C34.7093 40.2532 37.0447 38.2134 38.4978 34.7668H42.0023C41.9052 35.0499 41.7995 35.3345 41.6836 35.622C41.0229 37.2654 40.1943 38.6402 39.3496 39.7625C39.3134 39.8104 39.2772 39.8598 39.241 39.9062C39.3902 39.9135 39.5423 39.9164 39.693 39.9164C42.066 39.9164 44.2623 39.1121 46.0501 37.7459C45.6198 36.6585 45.0389 35.6539 44.3319 34.7639C43.4901 33.7027 42.4702 32.8069 41.3214 32.1246C40.7477 31.7819 40.1407 31.4959 39.509 31.268C39.5597 30.9617 39.6003 30.6626 39.6307 30.3708C39.7147 29.5926 39.7321 28.8682 39.7118 28.2178C44.4652 29.5796 48.1899 33.5938 49.3778 38.6707C48.6028 39.475 47.7408 40.1806 46.8049 40.7729L46.8063 40.7758Z" fill="url(#paint0_linear_546_151033)"/>
<path d="M32.5063 37.0474C34.2463 35.4055 35.4864 33.1798 35.95 30.6595C35.9659 30.5637 35.9833 30.4693 35.9978 30.3735H26.3318C26.2463 29.7173 26.2 29.0451 26.2 28.3628C26.2 23.2103 28.7483 18.688 32.5817 16.1328C35.9398 18.3395 38.3259 22.0431 38.9054 26.368H35.9761C35.5284 23.762 34.255 21.4624 32.4527 19.7812C30.368 21.7484 29.0018 24.5562 28.828 27.7022C28.8193 27.843 28.8135 27.9839 28.8106 28.1261H39.0387C39.0387 28.2219 39.0416 28.3178 39.0416 28.4136C39.0416 29.0785 38.9981 29.7333 38.917 30.375C38.888 30.6015 38.8547 30.825 38.8156 31.0486C38.7533 31.4145 38.6765 31.7745 38.5881 32.1302C37.6928 35.7002 35.54 38.7286 32.6599 40.6465C30.5172 39.2382 28.7686 37.2202 27.6371 34.8175L27.6125 34.7696C27.2213 33.9333 26.904 33.0506 26.6708 32.1302H32.4165V34.7696H30.6259C31.1575 35.6145 31.7892 36.3811 32.5063 37.0503V37.0474Z" fill="url(#paint1_linear_546_151033)"/>
<path d="M27.9028 42.6139C27.093 42.7722 26.26 42.8549 25.4067 42.8549C21.5805 42.8549 18.1238 41.1854 15.6465 38.4966C16.8852 33.4618 20.6273 29.494 25.3791 28.1758C25.3415 29.0352 25.3704 30.0384 25.5356 31.136C22.4512 32.1276 19.9478 34.5274 18.6917 37.6299C20.5186 39.0991 22.7946 39.9688 25.2647 39.9688C25.4574 39.9688 25.6471 39.963 25.8369 39.9528C25.0314 38.7391 24.2404 37.2931 23.5885 35.6061C23.4784 35.3244 23.3784 35.0442 23.2828 34.7684H26.5526C26.6902 35.098 26.838 35.4145 26.9916 35.7193C28.4939 38.7028 30.6221 40.4653 31.6826 41.2362C30.512 41.8808 29.24 42.3526 27.8999 42.6154L27.9028 42.6139Z" fill="url(#paint2_linear_546_151033)"/>
</g>
</g>
<defs>
<filter id="filter0_d_546_151033" x="0.893944" y="0.957577" width="65.3576" height="65.3571" filterUnits="userSpaceOnUse" color-interpolation-filters="sRGB">
<feFlood flood-opacity="0" result="BackgroundImageFix"/>
<feColorMatrix in="SourceAlpha" type="matrix" values="0 0 0 0 0 0 0 0 0 0 0 0 0 0 0 0 0 0 127 0" result="hardAlpha"/>
<feMorphology radius="2.04242" operator="erode" in="SourceAlpha" result="effect1_dropShadow_546_151033"/>
<feOffset dx="1.02121" dy="4.08485"/>
<feGaussianBlur stdDeviation="4.08485"/>
<feComposite in2="hardAlpha" operator="out"/>
<feColorMatrix type="matrix" values="0 0 0 0 0.886275 0 0 0 0 0.517647 0 0 0 0 0.156863 0 0 0 0.16 0"/>
<feBlend mode="normal" in2="BackgroundImageFix" result="effect1_dropShadow_546_151033"/>
<feBlend mode="normal" in="SourceGraphic" in2="effect1_dropShadow_546_151033" result="shape"/>
</filter>
<linearGradient id="paint0_linear_546_151033" x1="41.8834" y1="28.2178" x2="41.8834" y2="42.8055" gradientUnits="userSpaceOnUse">
<stop stop-color="#FFBC6F"/>
<stop offset="1" stop-color="#FF8900"/>
</linearGradient>
<linearGradient id="paint1_linear_546_151033" x1="32.9765" y1="16.1328" x2="32.9765" y2="40.6465" gradientUnits="userSpaceOnUse">
<stop stop-color="#FFBC6F"/>
<stop offset="1" stop-color="#FF8900"/>
</linearGradient>
<linearGradient id="paint2_linear_546_151033" x1="24.1088" y1="28.1758" x2="24.1088" y2="42.8549" gradientUnits="userSpaceOnUse">
<stop stop-color="#FFBC6F"/>
<stop offset="1" stop-color="#FF8900"/>
</linearGradient>
<clipPath id="clip0_546_151033">
<rect width="33.7557" height="26.7131" fill="white" transform="translate(15.6736 16.1953)"/>
</clipPath>
</defs>
</svg>
