<svg width="32" height="32" viewBox="0 0 32 32" fill="none" xmlns="http://www.w3.org/2000/svg">
<path d="M31.4482 26.4831H0.551749C0.247062 26.4831 0 26.236 0 25.9314V6.06933C0 5.76464 0.247062 5.51758 0.551749 5.51758H31.4483C31.7529 5.51758 32 5.76464 32 6.06933V25.9314C31.9999 26.2361 31.7529 26.4831 31.4482 26.4831Z" fill="#F5F5F5"/>
<path d="M31.9999 7.13039H0V6.06933C0 5.76464 0.247062 5.51758 0.551749 5.51758H31.4483C31.7529 5.51758 32 5.76464 32 6.06933L31.9999 7.13039Z" fill="#FF4B55"/>
<path d="M31.9999 11.9688H0V13.5815H31.9999V11.9688Z" fill="#FF4B55"/>
<path d="M31.9999 8.74316H0V10.3559H31.9999V8.74316Z" fill="#FF4B55"/>
<path d="M31.9999 16.8062H0.551749C0.247062 16.8062 0 16.5591 0 16.2544V15.1934H31.9999V16.8062Z" fill="#FF4B55"/>
<path d="M31.9999 21.6455H0V23.2583H31.9999V21.6455Z" fill="#FF4B55"/>
<path d="M31.4482 26.4829H0.551749C0.247062 26.4829 0 26.2358 0 25.9311V24.8701H31.9999V25.9312C31.9999 26.2359 31.7529 26.4829 31.4482 26.4829Z" fill="#FF4B55"/>
<path d="M31.9999 18.4199H0V20.0327H31.9999V18.4199Z" fill="#FF4B55"/>
<path d="M14.3448 5.51758H0.551749C0.247062 5.51758 0 5.76458 0 6.06926V16.2549C0 16.5596 0.247062 16.8066 0.551749 16.8066H14.3448C14.6495 16.8066 14.8966 16.5596 14.8966 16.2549V6.06926C14.8965 5.76458 14.6495 5.51758 14.3448 5.51758Z" fill="#41479B"/>
<path d="M1.54939 6.78362L1.67152 7.14987L2.05758 7.1528C2.10758 7.15324 2.12826 7.21699 2.08808 7.24668L1.77751 7.47605L1.89401 7.84411C1.90914 7.89174 1.85483 7.93124 1.81414 7.90211L1.50008 7.67768L1.18602 7.90218C1.14533 7.93124 1.09114 7.8918 1.10614 7.84418L1.22264 7.47612L0.912079 7.24674C0.871892 7.21699 0.892579 7.1533 0.942579 7.15287L1.32864 7.14993L1.45077 6.78368C1.46652 6.73618 1.53352 6.73618 1.54939 6.78362Z" fill="#F5F5F5"/>
<path d="M1.54939 8.69959L1.67152 9.06584L2.05758 9.06877C2.10758 9.06921 2.12826 9.13296 2.08808 9.16265L1.77751 9.39202L1.89401 9.76008C1.90914 9.80771 1.85483 9.84721 1.81414 9.81808L1.50008 9.59365L1.18602 9.81815C1.14533 9.84721 1.09114 9.80777 1.10614 9.76015L1.22264 9.39208L0.912079 9.16271C0.871892 9.13296 0.892579 9.06927 0.942579 9.06884L1.32864 9.0659L1.45077 8.69965C1.46652 8.65221 1.53352 8.65221 1.54939 8.69959Z" fill="#F5F5F5"/>
<path d="M1.54939 10.6156L1.67152 10.9819L2.05758 10.9848C2.10758 10.9852 2.12826 11.049 2.08808 11.0787L1.77751 11.308L1.89401 11.6761C1.90914 11.7237 1.85483 11.7632 1.81414 11.7341L1.50008 11.5097L1.18602 11.7342C1.14533 11.7632 1.09114 11.7238 1.10614 11.6762L1.22264 11.3081L0.912079 11.0787C0.871892 11.049 0.892579 10.9853 0.942579 10.9849L1.32864 10.9819L1.45077 10.6157C1.46652 10.5682 1.53352 10.5682 1.54939 10.6156Z" fill="#F5F5F5"/>
<path d="M1.54939 12.5317L1.67152 12.8979L2.05758 12.9009C2.10758 12.9013 2.12826 12.965 2.08808 12.9947L1.77751 13.2241L1.89401 13.5922C1.90914 13.6398 1.85483 13.6793 1.81414 13.6502L1.50008 13.4257L1.18602 13.6502C1.14533 13.6793 1.09114 13.6398 1.10614 13.5922L1.22264 13.2242L0.912079 12.9948C0.871892 12.965 0.892579 12.9014 0.942579 12.9009L1.32864 12.898L1.45077 12.5317C1.46652 12.4842 1.53352 12.4842 1.54939 12.5317Z" fill="#F5F5F5"/>
<path d="M1.54939 14.4477L1.67152 14.814L2.05758 14.8169C2.10758 14.8174 2.12826 14.8811 2.08808 14.9108L1.77751 15.1402L1.89401 15.5082C1.90914 15.5558 1.85483 15.5953 1.81414 15.5662L1.50008 15.3418L1.18602 15.5663C1.14533 15.5953 1.09114 15.5559 1.10614 15.5083L1.22264 15.1402L0.912079 14.9109C0.871892 14.8811 0.892579 14.8174 0.942579 14.817L1.32864 14.814L1.45077 14.4478C1.46652 14.4002 1.53352 14.4002 1.54939 14.4477Z" fill="#F5F5F5"/>
<path d="M3.03645 7.72303L3.15858 8.08928L3.54464 8.09222C3.59464 8.09266 3.61532 8.15641 3.57514 8.18609L3.26458 8.41547L3.38108 8.78353C3.3962 8.83115 3.34189 8.87065 3.3012 8.84153L2.98714 8.61703L2.67308 8.84153C2.63239 8.87059 2.5782 8.83115 2.5932 8.78353L2.7097 8.41547L2.39914 8.18609C2.35895 8.15634 2.37964 8.09266 2.42964 8.09222L2.8157 8.08928L2.93783 7.72303C2.95351 7.67566 3.02064 7.67566 3.03645 7.72303Z" fill="#F5F5F5"/>
<path d="M3.03645 9.63909L3.15858 10.0053L3.54464 10.0083C3.59464 10.0087 3.61532 10.0725 3.57514 10.1022L3.26458 10.3315L3.38108 10.6996C3.3962 10.7472 3.34189 10.7867 3.3012 10.7576L2.98714 10.5331L2.67308 10.7576C2.63239 10.7867 2.5782 10.7473 2.5932 10.6996L2.7097 10.3315L2.39914 10.1022C2.35895 10.0724 2.37964 10.0087 2.42964 10.0083L2.8157 10.0053L2.93783 9.63909C2.95351 9.59166 3.02064 9.59166 3.03645 9.63909Z" fill="#F5F5F5"/>
<path d="M3.03645 11.5551L3.15858 11.9214L3.54464 11.9243C3.59464 11.9247 3.61532 11.9885 3.57514 12.0182L3.26458 12.2475L3.38108 12.6156C3.3962 12.6632 3.34189 12.7027 3.3012 12.6736L2.98714 12.4491L2.67308 12.6736C2.63239 12.7027 2.5782 12.6632 2.5932 12.6156L2.7097 12.2475L2.39914 12.0182C2.35895 11.9884 2.37964 11.9247 2.42964 11.9243L2.8157 11.9214L2.93783 11.5551C2.95351 11.5077 3.02064 11.5077 3.03645 11.5551Z" fill="#F5F5F5"/>
<path d="M3.03645 13.4711L3.15858 13.8373L3.54464 13.8403C3.59464 13.8407 3.61532 13.9045 3.57514 13.9341L3.26458 14.1635L3.38108 14.5316C3.3962 14.5792 3.34189 14.6187 3.3012 14.5896L2.98714 14.3651L2.67308 14.5896C2.63239 14.6186 2.5782 14.5792 2.5932 14.5316L2.7097 14.1635L2.39914 13.9341C2.35895 13.9044 2.37964 13.8407 2.42964 13.8403L2.8157 13.8373L2.93783 13.4711C2.95351 13.4237 3.02064 13.4237 3.03645 13.4711Z" fill="#F5F5F5"/>
<path d="M4.52351 6.78362L4.64564 7.14987L5.0317 7.15281C5.0817 7.15325 5.10239 7.217 5.0622 7.24669L4.75164 7.47606L4.86814 7.84412C4.88326 7.89175 4.82895 7.93125 4.78826 7.90212L4.4742 7.67762L4.16014 7.90212C4.11945 7.93118 4.06526 7.89175 4.08026 7.84412L4.19676 7.47606L3.8862 7.24669C3.84601 7.21694 3.8667 7.15325 3.9167 7.15281L4.30276 7.14987L4.42489 6.78362C4.44064 6.73619 4.5077 6.73619 4.52351 6.78362Z" fill="#F5F5F5"/>
<path d="M4.52351 8.69959L4.64564 9.06584L5.0317 9.06878C5.0817 9.06922 5.10239 9.13297 5.0622 9.16266L4.75164 9.39203L4.86814 9.76009C4.88326 9.80772 4.82895 9.84722 4.78826 9.81809L4.4742 9.59359L4.16014 9.81809C4.11945 9.84715 4.06526 9.80772 4.08026 9.76009L4.19676 9.39203L3.8862 9.16266C3.84601 9.13291 3.8667 9.06922 3.9167 9.06878L4.30276 9.06584L4.42489 8.69959C4.44064 8.65222 4.5077 8.65222 4.52351 8.69959Z" fill="#F5F5F5"/>
<path d="M4.52351 10.6156L4.64564 10.9819L5.0317 10.9848C5.0817 10.9852 5.10239 11.049 5.0622 11.0787L4.75164 11.308L4.86814 11.6761C4.88326 11.7237 4.82895 11.7632 4.78826 11.7341L4.4742 11.5096L4.16014 11.7341C4.11945 11.7632 4.06526 11.7237 4.08026 11.6761L4.19676 11.308L3.8862 11.0787C3.84601 11.0489 3.8667 10.9852 3.9167 10.9848L4.30276 10.9819L4.42489 10.6156C4.44064 10.5682 4.5077 10.5682 4.52351 10.6156Z" fill="#F5F5F5"/>
<path d="M4.52351 12.5317L4.64564 12.8979L5.0317 12.9009C5.0817 12.9013 5.10239 12.965 5.0622 12.9947L4.75164 13.2241L4.86814 13.5922C4.88326 13.6398 4.82895 13.6793 4.78826 13.6502L4.4742 13.4257L4.16014 13.6502C4.11945 13.6792 4.06526 13.6398 4.08026 13.5922L4.19676 13.2241L3.8862 12.9947C3.84601 12.965 3.8667 12.9013 3.9167 12.9009L4.30276 12.8979L4.42489 12.5317C4.44064 12.4842 4.5077 12.4842 4.52351 12.5317Z" fill="#F5F5F5"/>
<path d="M4.52351 14.4477L4.64564 14.814L5.0317 14.8169C5.0817 14.8174 5.10239 14.8811 5.0622 14.9108L4.75164 15.1402L4.86814 15.5082C4.88326 15.5559 4.82895 15.5954 4.78826 15.5662L4.4742 15.3417L4.16014 15.5662C4.11945 15.5953 4.06526 15.5559 4.08026 15.5082L4.19676 15.1402L3.8862 14.9108C3.84601 14.881 3.8667 14.8174 3.9167 14.8169L4.30276 14.814L4.42489 14.4477C4.44064 14.4002 4.5077 14.4002 4.52351 14.4477Z" fill="#F5F5F5"/>
<path d="M6.01082 7.72303L6.13294 8.08928L6.519 8.09222C6.569 8.09266 6.58969 8.15641 6.5495 8.18609L6.23894 8.41547L6.35544 8.78353C6.37057 8.83115 6.31625 8.87065 6.27557 8.84153L5.9615 8.61703L5.64744 8.84153C5.60675 8.87059 5.55257 8.83115 5.56757 8.78353L5.68407 8.41547L5.3735 8.18609C5.33332 8.15634 5.354 8.09266 5.404 8.09222L5.79007 8.08928L5.91219 7.72303C5.92788 7.67566 5.995 7.67566 6.01082 7.72303Z" fill="#F5F5F5"/>
<path d="M6.01082 9.63909L6.13294 10.0053L6.519 10.0083C6.569 10.0087 6.58969 10.0725 6.5495 10.1022L6.23894 10.3315L6.35544 10.6996C6.37057 10.7472 6.31625 10.7867 6.27557 10.7576L5.9615 10.5331L5.64744 10.7576C5.60675 10.7867 5.55257 10.7473 5.56757 10.6996L5.68407 10.3315L5.3735 10.1022C5.33332 10.0724 5.354 10.0087 5.404 10.0083L5.79007 10.0053L5.91219 9.63909C5.92788 9.59166 5.995 9.59166 6.01082 9.63909Z" fill="#F5F5F5"/>
<path d="M6.01082 11.5551L6.13294 11.9214L6.519 11.9243C6.569 11.9247 6.58969 11.9885 6.5495 12.0182L6.23894 12.2475L6.35544 12.6156C6.37057 12.6632 6.31625 12.7027 6.27557 12.6736L5.9615 12.4491L5.64744 12.6736C5.60675 12.7027 5.55257 12.6632 5.56757 12.6156L5.68407 12.2475L5.3735 12.0182C5.33332 11.9884 5.354 11.9247 5.404 11.9243L5.79007 11.9214L5.91219 11.5551C5.92788 11.5077 5.995 11.5077 6.01082 11.5551Z" fill="#F5F5F5"/>
<path d="M6.01082 13.4711L6.13294 13.8373L6.519 13.8403C6.569 13.8407 6.58969 13.9045 6.5495 13.9341L6.23894 14.1635L6.35544 14.5316C6.37057 14.5792 6.31625 14.6187 6.27557 14.5896L5.9615 14.3651L5.64744 14.5896C5.60675 14.6186 5.55257 14.5792 5.56757 14.5316L5.68407 14.1635L5.3735 13.9341C5.33332 13.9044 5.354 13.8407 5.404 13.8403L5.79007 13.8373L5.91219 13.4711C5.92788 13.4237 5.995 13.4237 6.01082 13.4711Z" fill="#F5F5F5"/>
<path d="M7.49769 6.78362L7.61982 7.14987L8.00588 7.15281C8.05588 7.15325 8.07657 7.217 8.03638 7.24669L7.72582 7.47606L7.84232 7.84412C7.85744 7.89175 7.80313 7.93125 7.76244 7.90212L7.44832 7.67762L7.13426 7.90212C7.09357 7.93118 7.03938 7.89175 7.05438 7.84412L7.17088 7.47606L6.86032 7.24669C6.82013 7.21694 6.84082 7.15325 6.89082 7.15281L7.27688 7.14987L7.39901 6.78362C7.41482 6.73619 7.48188 6.73619 7.49769 6.78362Z" fill="#F5F5F5"/>
<path d="M7.49769 8.69959L7.61982 9.06584L8.00588 9.06878C8.05588 9.06922 8.07657 9.13297 8.03638 9.16266L7.72582 9.39203L7.84232 9.76009C7.85744 9.80772 7.80313 9.84722 7.76244 9.81809L7.44832 9.59359L7.13426 9.81809C7.09357 9.84715 7.03938 9.80772 7.05438 9.76009L7.17088 9.39203L6.86032 9.16266C6.82013 9.13291 6.84082 9.06922 6.89082 9.06878L7.27688 9.06584L7.39901 8.69959C7.41482 8.65222 7.48188 8.65222 7.49769 8.69959Z" fill="#F5F5F5"/>
<path d="M7.49769 10.6156L7.61982 10.9819L8.00588 10.9848C8.05588 10.9852 8.07657 11.049 8.03638 11.0787L7.72582 11.308L7.84232 11.6761C7.85744 11.7237 7.80313 11.7632 7.76244 11.7341L7.44832 11.5096L7.13426 11.7341C7.09357 11.7632 7.03938 11.7237 7.05438 11.6761L7.17088 11.308L6.86032 11.0787C6.82013 11.0489 6.84082 10.9852 6.89082 10.9848L7.27688 10.9819L7.39901 10.6156C7.41482 10.5682 7.48188 10.5682 7.49769 10.6156Z" fill="#F5F5F5"/>
<path d="M7.49769 12.5317L7.61982 12.8979L8.00588 12.9009C8.05588 12.9013 8.07657 12.965 8.03638 12.9947L7.72582 13.2241L7.84232 13.5922C7.85744 13.6398 7.80313 13.6793 7.76244 13.6502L7.44832 13.4257L7.13426 13.6502C7.09357 13.6792 7.03938 13.6398 7.05438 13.5922L7.17088 13.2241L6.86032 12.9947C6.82013 12.965 6.84082 12.9013 6.89082 12.9009L7.27688 12.8979L7.39901 12.5317C7.41482 12.4842 7.48188 12.4842 7.49769 12.5317Z" fill="#F5F5F5"/>
<path d="M7.49769 14.4477L7.61982 14.814L8.00588 14.8169C8.05588 14.8174 8.07657 14.8811 8.03638 14.9108L7.72582 15.1402L7.84232 15.5082C7.85744 15.5559 7.80313 15.5954 7.76244 15.5662L7.44832 15.3417L7.13426 15.5662C7.09357 15.5953 7.03938 15.5559 7.05438 15.5082L7.17088 15.1402L6.86032 14.9108C6.82013 14.881 6.84082 14.8174 6.89082 14.8169L7.27688 14.814L7.39901 14.4477C7.41482 14.4002 7.48188 14.4002 7.49769 14.4477Z" fill="#F5F5F5"/>
<path d="M8.98469 7.72303L9.10682 8.08928L9.49288 8.09222C9.54288 8.09266 9.56357 8.15641 9.52338 8.18609L9.21282 8.41547L9.32932 8.78353C9.34444 8.83115 9.29013 8.87065 9.24944 8.84153L8.93538 8.61703L8.62132 8.84153C8.58063 8.87059 8.52644 8.83115 8.54144 8.78353L8.65794 8.41547L8.34738 8.18609C8.30719 8.15634 8.32788 8.09266 8.37788 8.09222L8.76394 8.08928L8.88607 7.72303C8.90188 7.67566 8.96888 7.67566 8.98469 7.72303Z" fill="#F5F5F5"/>
<path d="M8.98469 9.63909L9.10682 10.0053L9.49288 10.0083C9.54288 10.0087 9.56357 10.0725 9.52338 10.1022L9.21282 10.3315L9.32932 10.6996C9.34444 10.7472 9.29013 10.7867 9.24944 10.7576L8.93538 10.5331L8.62132 10.7576C8.58063 10.7867 8.52644 10.7473 8.54144 10.6996L8.65794 10.3315L8.34738 10.1022C8.30719 10.0724 8.32788 10.0087 8.37788 10.0083L8.76394 10.0053L8.88607 9.63909C8.90188 9.59166 8.96888 9.59166 8.98469 9.63909Z" fill="#F5F5F5"/>
<path d="M8.98469 11.5551L9.10682 11.9214L9.49288 11.9243C9.54288 11.9247 9.56357 11.9885 9.52338 12.0182L9.21282 12.2475L9.32932 12.6156C9.34444 12.6632 9.29013 12.7027 9.24944 12.6736L8.93538 12.4491L8.62132 12.6736C8.58063 12.7027 8.52644 12.6632 8.54144 12.6156L8.65794 12.2475L8.34738 12.0182C8.30719 11.9884 8.32788 11.9247 8.37788 11.9243L8.76394 11.9214L8.88607 11.5551C8.90188 11.5077 8.96888 11.5077 8.98469 11.5551Z" fill="#F5F5F5"/>
<path d="M8.98469 13.4711L9.10682 13.8373L9.49288 13.8403C9.54288 13.8407 9.56357 13.9045 9.52338 13.9341L9.21282 14.1635L9.32932 14.5316C9.34444 14.5792 9.29013 14.6187 9.24944 14.5896L8.93538 14.3651L8.62132 14.5896C8.58063 14.6186 8.52644 14.5792 8.54144 14.5316L8.65794 14.1635L8.34738 13.9341C8.30719 13.9044 8.32788 13.8407 8.37788 13.8403L8.76394 13.8373L8.88607 13.4711C8.90188 13.4237 8.96888 13.4237 8.98469 13.4711Z" fill="#F5F5F5"/>
<path d="M10.4718 6.78362L10.5939 7.14987L10.9799 7.15281C11.0299 7.15325 11.0506 7.217 11.0104 7.24669L10.6999 7.47606L10.8164 7.84412C10.8315 7.89175 10.7772 7.93125 10.7365 7.90212L10.4224 7.67762L10.1084 7.90212C10.0677 7.93118 10.0135 7.89175 10.0285 7.84412L10.145 7.47606L9.83444 7.24669C9.79426 7.21694 9.81494 7.15325 9.86494 7.15281L10.251 7.14987L10.3731 6.78362C10.3888 6.73619 10.4559 6.73619 10.4718 6.78362Z" fill="#F5F5F5"/>
<path d="M10.4718 8.69959L10.5939 9.06584L10.9799 9.06878C11.0299 9.06922 11.0506 9.13297 11.0104 9.16266L10.6999 9.39203L10.8164 9.76009C10.8315 9.80772 10.7772 9.84722 10.7365 9.81809L10.4224 9.59359L10.1084 9.81809C10.0677 9.84715 10.0135 9.80772 10.0285 9.76009L10.145 9.39203L9.83444 9.16266C9.79426 9.13291 9.81494 9.06922 9.86494 9.06878L10.251 9.06584L10.3731 8.69959C10.3888 8.65222 10.4559 8.65222 10.4718 8.69959Z" fill="#F5F5F5"/>
<path d="M10.4718 10.6156L10.5939 10.9819L10.9799 10.9848C11.0299 10.9852 11.0506 11.049 11.0104 11.0787L10.6999 11.308L10.8164 11.6761C10.8315 11.7237 10.7772 11.7632 10.7365 11.7341L10.4224 11.5096L10.1084 11.7341C10.0677 11.7632 10.0135 11.7237 10.0285 11.6761L10.145 11.308L9.83444 11.0787C9.79426 11.0489 9.81494 10.9852 9.86494 10.9848L10.251 10.9819L10.3731 10.6156C10.3888 10.5682 10.4559 10.5682 10.4718 10.6156Z" fill="#F5F5F5"/>
<path d="M10.4718 12.5317L10.5939 12.8979L10.9799 12.9009C11.0299 12.9013 11.0506 12.965 11.0104 12.9947L10.6999 13.2241L10.8164 13.5922C10.8315 13.6398 10.7772 13.6793 10.7365 13.6502L10.4224 13.4257L10.1084 13.6502C10.0677 13.6792 10.0135 13.6398 10.0285 13.5922L10.145 13.2241L9.83444 12.9947C9.79426 12.965 9.81494 12.9013 9.86494 12.9009L10.251 12.8979L10.3731 12.5317C10.3888 12.4842 10.4559 12.4842 10.4718 12.5317Z" fill="#F5F5F5"/>
<path d="M10.4718 14.4477L10.5939 14.814L10.9799 14.8169C11.0299 14.8174 11.0506 14.8811 11.0104 14.9108L10.6999 15.1402L10.8164 15.5082C10.8315 15.5559 10.7772 15.5954 10.7365 15.5662L10.4224 15.3417L10.1084 15.5662C10.0677 15.5953 10.0135 15.5559 10.0285 15.5082L10.145 15.1402L9.83444 14.9108C9.79426 14.881 9.81494 14.8174 9.86494 14.8169L10.251 14.814L10.3731 14.4477C10.3888 14.4002 10.4559 14.4002 10.4718 14.4477Z" fill="#F5F5F5"/>
<path d="M11.9588 7.72303L12.0809 8.08928L12.467 8.09222C12.517 8.09266 12.5377 8.15641 12.4975 8.18609L12.1869 8.41547L12.3034 8.78353C12.3186 8.83115 12.2643 8.87065 12.2236 8.84153L11.9095 8.61703L11.5954 8.84153C11.5548 8.87059 11.5006 8.83115 11.5156 8.78353L11.6321 8.41547L11.3215 8.18609C11.2813 8.15634 11.302 8.09266 11.352 8.09222L11.7381 8.08928L11.8602 7.72303C11.8759 7.67566 11.9431 7.67566 11.9588 7.72303Z" fill="#F5F5F5"/>
<path d="M11.9588 9.63909L12.0809 10.0053L12.467 10.0083C12.517 10.0087 12.5377 10.0725 12.4975 10.1022L12.1869 10.3315L12.3034 10.6996C12.3186 10.7472 12.2643 10.7867 12.2236 10.7576L11.9095 10.5331L11.5954 10.7576C11.5548 10.7867 11.5006 10.7473 11.5156 10.6996L11.6321 10.3315L11.3215 10.1022C11.2813 10.0724 11.302 10.0087 11.352 10.0083L11.7381 10.0053L11.8602 9.63909C11.8759 9.59166 11.9431 9.59166 11.9588 9.63909Z" fill="#F5F5F5"/>
<path d="M11.9588 11.5551L12.0809 11.9214L12.467 11.9243C12.517 11.9247 12.5377 11.9885 12.4975 12.0182L12.1869 12.2475L12.3034 12.6156C12.3186 12.6632 12.2643 12.7027 12.2236 12.6736L11.9095 12.4491L11.5954 12.6736C11.5548 12.7027 11.5006 12.6632 11.5156 12.6156L11.6321 12.2475L11.3215 12.0182C11.2813 11.9884 11.302 11.9247 11.352 11.9243L11.7381 11.9214L11.8602 11.5551C11.8759 11.5077 11.9431 11.5077 11.9588 11.5551Z" fill="#F5F5F5"/>
<path d="M11.9588 13.4711L12.0809 13.8373L12.467 13.8403C12.517 13.8407 12.5377 13.9045 12.4975 13.9341L12.1869 14.1635L12.3034 14.5316C12.3186 14.5792 12.2643 14.6187 12.2236 14.5896L11.9095 14.3651L11.5954 14.5896C11.5548 14.6186 11.5006 14.5792 11.5156 14.5316L11.6321 14.1635L11.3215 13.9341C11.2813 13.9044 11.302 13.8407 11.352 13.8403L11.7381 13.8373L11.8602 13.4711C11.8759 13.4237 11.9431 13.4237 11.9588 13.4711Z" fill="#F5F5F5"/>
<path d="M13.4459 6.78362L13.568 7.14987L13.9541 7.15281C14.0041 7.15325 14.0247 7.217 13.9846 7.24669L13.674 7.47606L13.7905 7.84412C13.8056 7.89175 13.7513 7.93125 13.7106 7.90212L13.3966 7.67762L13.0825 7.90212C13.0418 7.93118 12.9876 7.89175 13.0026 7.84412L13.1191 7.47606L12.8086 7.24669C12.7684 7.21694 12.7891 7.15325 12.8391 7.15281L13.2251 7.14987L13.3473 6.78362C13.363 6.73619 13.43 6.73619 13.4459 6.78362Z" fill="#F5F5F5"/>
<path d="M13.4459 8.69959L13.568 9.06584L13.9541 9.06878C14.0041 9.06922 14.0247 9.13297 13.9846 9.16266L13.674 9.39203L13.7905 9.76009C13.8056 9.80772 13.7513 9.84722 13.7106 9.81809L13.3966 9.59359L13.0825 9.81809C13.0418 9.84715 12.9876 9.80772 13.0026 9.76009L13.1191 9.39203L12.8086 9.16266C12.7684 9.13291 12.7891 9.06922 12.8391 9.06878L13.2251 9.06584L13.3473 8.69959C13.363 8.65222 13.43 8.65222 13.4459 8.69959Z" fill="#F5F5F5"/>
<path d="M13.4459 10.6156L13.568 10.9819L13.9541 10.9848C14.0041 10.9852 14.0247 11.049 13.9846 11.0787L13.674 11.308L13.7905 11.6761C13.8056 11.7237 13.7513 11.7632 13.7106 11.7341L13.3966 11.5096L13.0825 11.7341C13.0418 11.7632 12.9876 11.7237 13.0026 11.6761L13.1191 11.308L12.8086 11.0787C12.7684 11.0489 12.7891 10.9852 12.8391 10.9848L13.2251 10.9819L13.3473 10.6156C13.363 10.5682 13.43 10.5682 13.4459 10.6156Z" fill="#F5F5F5"/>
<path d="M13.4459 12.5317L13.568 12.8979L13.9541 12.9009C14.0041 12.9013 14.0247 12.965 13.9846 12.9947L13.674 13.2241L13.7905 13.5922C13.8056 13.6398 13.7513 13.6793 13.7106 13.6502L13.3966 13.4257L13.0825 13.6502C13.0418 13.6792 12.9876 13.6398 13.0026 13.5922L13.1191 13.2241L12.8086 12.9947C12.7684 12.965 12.7891 12.9013 12.8391 12.9009L13.2251 12.8979L13.3473 12.5317C13.363 12.4842 13.43 12.4842 13.4459 12.5317Z" fill="#F5F5F5"/>
<path d="M13.4459 14.4477L13.568 14.814L13.9541 14.8169C14.0041 14.8174 14.0247 14.8811 13.9846 14.9108L13.674 15.1402L13.7905 15.5082C13.8056 15.5559 13.7513 15.5954 13.7106 15.5662L13.3966 15.3417L13.0825 15.5662C13.0418 15.5953 12.9876 15.5559 13.0026 15.5082L13.1191 15.1402L12.8086 14.9108C12.7684 14.881 12.7891 14.8174 12.8391 14.8169L13.2251 14.814L13.3473 14.4477C13.363 14.4002 13.43 14.4002 13.4459 14.4477Z" fill="#F5F5F5"/>
</svg>
