<svg width="32" height="32" viewBox="0 0 32 32" fill="none" xmlns="http://www.w3.org/2000/svg">
<path d="M0 5.50488H32V26.4949H0V5.50488Z" fill="#D80027"/>
<path d="M8.71196 9.88866L6.10396 9.89166L6.09696 9.89566L6.10096 9.88866L5.30396 7.30566L4.59596 9.89166L2.01196 9.88866L4.15796 11.4057H4.17096L4.14596 11.4237L3.27296 13.9947L5.35796 12.3807L5.36196 12.3687L5.36596 12.3807L7.44896 13.9947L6.57596 11.4237L6.55296 11.4057H6.56096L8.71196 9.88866Z" fill="#FFDA44"/>
<path d="M13.1517 14.0377H12.6177L12.4547 13.5107L12.3097 14.0377H11.7837L12.2217 14.3487H12.2247L12.2197 14.3527L12.0407 14.8777L12.4657 14.5487L12.4667 14.5457L12.4677 14.5487L12.8937 14.8777L12.7137 14.3527L12.7087 14.3487H12.7117L13.1517 14.0377Z" fill="#FFDA44"/>
<path d="M10.2017 16.7737L10.1867 16.2197L9.90466 16.6837L9.39966 16.5287L9.73766 16.9547L9.73866 16.9557L9.73366 16.9567L9.42166 17.4087L9.91766 17.2187L9.91966 17.2157V17.2187L10.2377 17.6587L10.2087 17.1027L10.2077 17.1007L10.7127 16.9297L10.2017 16.7737Z" fill="#FFDA44"/>
<path d="M12.2778 11.3159L12.8058 11.2899L12.8088 11.2879L12.8078 11.2919L12.9858 11.8129L13.1158 11.2719L13.1138 11.2669L13.1158 11.2679L13.6458 11.2669L13.2018 10.9579H13.1998L13.2018 10.9559L13.3468 10.4229L12.9458 10.7769L12.5088 10.4699L12.7078 10.9829H12.7048L12.2778 11.3159Z" fill="#FFDA44"/>
<path d="M11.737 8.12607L11.741 8.12707L12.246 7.96407L11.737 7.80307L11.735 7.80407L11.737 7.80107L11.728 7.24707L11.442 7.70907L10.938 7.54707L11.271 7.97607L11.275 7.97707L11.267 7.98007L10.952 8.42607L11.449 8.24107L11.451 8.23807V8.24107L11.765 8.68807L11.741 8.13107L11.737 8.12607Z" fill="#FFDA44"/>
</svg>
