<svg width="24" height="24" viewBox="0 0 24 24" fill="none" xmlns="http://www.w3.org/2000/svg">
<path d="M21.4755 16.6088L18.6786 13.8118C17.6797 12.8129 15.9816 13.2125 15.582 14.5111C15.2823 15.4101 14.2834 15.9096 13.3844 15.7098C11.3866 15.2103 8.68957 12.6132 8.19012 10.5155C7.89045 9.6164 8.48979 8.6175 9.3888 8.31786C10.6874 7.9183 11.0869 6.22016 10.088 5.22126L7.2911 2.42433C6.49198 1.72509 5.29329 1.72509 4.59406 2.42433L2.69614 4.32225C0.798225 6.32005 2.89592 11.6142 7.59077 16.3091C12.2856 21.004 17.5798 23.2016 19.5776 21.2037L21.4755 19.3058C22.1748 18.5067 22.1748 17.308 21.4755 16.6088Z" fill="#757575"/>
</svg>
