<svg width="32" height="32" viewBox="0 0 32 32" fill="none" xmlns="http://www.w3.org/2000/svg">
<path d="M32 5.33398H0V26.6669H32V5.33398Z" fill="#D80027"/>
<path d="M15.451 13.5498L16.5506 15.0652L18.3314 14.4877L17.2301 16.0017L18.3296 17.517L16.5494 16.9374L15.4481 18.4514L15.4492 16.5792L13.6689 15.9996L15.4498 15.4221L15.451 13.5498Z" fill="#F0F0F0"/>
<path d="M12.4502 19.7882C10.3583 19.7882 8.66254 18.0924 8.66254 16.0006C8.66254 13.9087 10.3583 12.2129 12.4502 12.2129C13.1024 12.2129 13.716 12.3779 14.2519 12.6682C13.4114 11.8462 12.2619 11.3389 10.9934 11.3389C8.41885 11.3389 6.33179 13.426 6.33179 16.0005C6.33179 18.575 8.41891 20.6621 10.9934 20.6621C12.2619 20.6621 13.4114 20.1548 14.2519 19.3328C13.7161 19.6232 13.1024 19.7882 12.4502 19.7882Z" fill="#F0F0F0"/>
</svg>
